<svg height="512" viewBox="0 0 58 58" width="512" xmlns="http://www.w3.org/2000/svg"><g id="Page-1" fill="none" fill-rule="evenodd"><g id="022---Velocity" fill-rule="nonzero"><path id="Shape" d="m33.59 7h18.41c2.209139 0 4 1.790861 4 4v37h-54v-37c0-2.209139 1.790861-4 4-4z" fill="#67b9cc"/><path id="Shape" d="m56 24v24h-54v-9.24c4-11.76 32-31.76 54-14.76z" fill="#2fa8cc"/><path id="Shape" d="m52 58h-46c-3.3137085 0-6-2.6862915-6-6v-3c0-.5522847.44771525-1 1-1h56c.5522847 0 1 .4477153 1 1v3c0 3.3137085-2.6862915 6-6 6z" fill="#3f5c6c"/><path id="Shape" d="m19 48h20v2c0 1.6568542-1.3431458 3-3 3h-14c-1.6568542 0-3-1.3431458-3-3z" fill="#35495e"/><path id="Shape" d="m14 53h-3c-.5522847 0-1-.4477153-1-1s.4477153-1 1-1h3c.5522847 0 1 .4477153 1 1s-.4477153 1-1 1z" fill="#35495e"/><circle id="Oval" cx="5" cy="52" fill="#2fa8cc" r="1"/><circle id="Oval" cx="8" cy="52" fill="#ff5364" r="1"/><path id="Shape" d="m14.629 27.59c-.207971-.00018-.4107116-.0651968-.58-.186l-3.63-2.59c-.2629628-.1877144-.41903116-.4909116-.419-.814v-5c0-.5522847.4477153-1 1-1s1 .4477153 1 1v4.485l3.21 2.291c.353946.2525734.5041112.7049218.37148 1.1190234-.1326312.4141015-.5176569.6950354-.95248.6949766z" fill="#2980ba"/><path id="Shape" d="m43.371 27.59c-.4348231.0000588-.8198488-.2808751-.95248-.6949766-.1326312-.4141016.017534-.86645.37148-1.1190234l3.21-2.291v-4.485c0-.5522847.4477153-1 1-1s1 .4477153 1 1v5c.0000312.3230884-.1560372.6262856-.419.814l-3.63 2.59c-.1692884.1208032-.372029.18582-.58.186z" fill="#2980ba"/><path id="Shape" d="m29 21c-.5522847 0-1-.4477153-1-1v-10c0-.55228475.4477153-1 1-1s1 .44771525 1 1v10c0 .5522847-.4477153 1-1 1z" fill="#2980ba"/><circle id="Oval" cx="29" cy="5" fill="#f0c419" r="5"/><circle id="Oval" cx="11" cy="15" fill="#f0c419" r="4"/><circle id="Oval" cx="47" cy="15" fill="#f0c419" r="4"/><path id="Shape" d="m48 39c0 .33-.01.67-.03 1-.0699683 1.3523529-.2845243 2.6933283-.64 4h-36.66c-.3554757-1.3066717-.5700317-2.6476471-.64-4-.02-.33-.03-.67-.03-1s.01-.67.02-1c.1427806-2.6554357.8411605-5.2513649 2.05-7.62.2993324-.5976677.6366916-1.1755206 1.01-1.73 1.4406462-2.2306674 3.3393326-4.1293538 5.57-5.57.5544794-.3733084 1.1323323-.7106676 1.73-1.01 2.3686351-1.2088395 4.9645643-1.9072194 7.62-2.05.33-.01.67-.02 1-.02s.67.01 1 .03c2.6555053.1346121 5.2524333.8298527 7.62 2.04.5952578.303762 1.1728479.6409678 1.73 1.01 2.2276848 1.4409684 4.1230369 3.3397294 5.56 5.57.3354721.4901862.6394193 1.0012183.91 1.53.037379.0680008.0707687.1381193.1.21 1.2190825 2.3611096 1.918106 4.956021 2.05 7.61.02.33.03.66.03 1z" fill="#35495e"/><path id="Shape" d="m48 39c.0023815 1.689203-.2229815 3.3710166-.67 5h-29.09c.9611514-6.0408345 4.7742941-11.248391 10.2429632-13.9886741 5.4686691-2.740283 11.9227189-2.6774908 17.3370368.1686741 1.4350275 2.7182426 2.1834387 5.7462181 2.18 8.82z" fill="#2c3e50"/><g fill="#e64c3c"><path id="Shape" d="m30 20.03v3.97c0 .5522847-.4477153 1-1 1s-1-.4477153-1-1v-3.98c.33-.01.67-.02 1-.02s.67.01 1 .03z"/><path id="Shape" d="m22 26.88c-.4811967.2705714-1.0904405.1060311-1.37-.37l-1.98-3.43c.5544794-.3733084 1.1323323-.7106676 1.73-1.01l1.99 3.44c.2723004.4809795.1074157 1.0914986-.37 1.37z"/><path id="Shape" d="m16.88 32c-.2795595.4760311-.8888033.6405714-1.37.37l-3.44-1.99c.2993324-.5976677.6366916-1.1755206 1.01-1.73l3.43 1.98c.4774157.2785014.6423004.8890205.37 1.37z"/><path id="Shape" d="m15 39c0 .5522847-.4477153 1-1 1h-3.97c-.02-.33-.03-.67-.03-1s.01-.67.02-1h3.98c.5522847 0 1 .4477153 1 1z"/><path id="Shape" d="m48 39c0 .33-.01.67-.03 1h-3.97c-.5522847 0-1-.4477153-1-1s.4477153-1 1-1h3.97c.02.33.03.66.03 1z"/><path id="Shape" d="m45.92 30.39-3.43 1.98c-.4804877.2761424-1.0938576.1104877-1.37-.37-.2761423-.4804877-.1104877-1.0938576.37-1.37l3.42-1.98c.3354721.4901862.6394193 1.0012183.91 1.53.037379.0680008.0707687.1381193.1.21z"/><path id="Shape" d="m39.35 23.08-1.98 3.43c-.2761424.4804877-.8895123.6461424-1.37.37s-.6461424-.8895123-.37-1.37l1.99-3.44c.5952578.303762 1.1728479.6409678 1.73 1.01z"/><path id="Shape" d="m30.8 43.4c-1.3254834.9941125-3.2058875.7254834-4.2-.6s-.7254834-3.2058875.6-4.2c1.325-.994 10.6-4.2 10.6-4.2s-5.675 8.006-7 9z"/></g></g></g></svg>