<svg height="477.60001pt" viewBox="0 0 477.60001 477.60001" width="477.60001pt" xmlns="http://www.w3.org/2000/svg"><path d="m477.601562 238.800781c0 131.886719-106.914062 238.800781-238.800781 238.800781s-238.800781-106.914062-238.800781-238.800781 106.914062-238.800781 238.800781-238.800781 238.800781 106.914062 238.800781 238.800781zm0 0" fill="#382b73"/><path d="m445.398438 238.800781c0 114.101563-92.496094 206.597657-206.597657 206.597657-114.101562 0-206.597656-92.496094-206.597656-206.597657 0-114.101562 92.496094-206.597656 206.597656-206.597656 114.101563 0 206.597657 92.496094 206.597657 206.597656zm0 0" fill="#473080"/><path d="m382.171875 327.015625h-23.710937c7.625 0 13.808593-6.179687 13.808593-13.808594v-148.429687c0-7.628906-6.183593-13.808594-13.808593-13.808594h-239.320313c-7.625 0-13.808594 6.183594-13.808594 13.808594v148.429687c0 7.628907 6.183594 13.808594 13.808594 13.808594h-23.710937c-5.179688 0-9.375 4.121094-9.375 9.207031v9.203125c0 .636719.066406 1.257813.1875 1.855469.875 4.195312 4.65625 7.351562 9.1875 7.351562h286.742187c4.53125 0 8.3125-3.15625 9.1875-7.351562.121094-.597656.1875-1.21875.1875-1.855469v-9.203125c0-5.085937-4.195313-9.207031-9.375-9.207031zm0 0" fill="#382b73"/><path d="m382.171875 313.015625h-286.742187c-5.179688 0-9.375 4.121094-9.375 9.207031v9.203125c0 5.085938 4.195312 9.207031 9.375 9.207031h286.742187c5.179687 0 9.375-4.121093 9.375-9.207031v-9.203125c0-5.085937-4.195313-9.207031-9.375-9.207031zm0 0" fill="#e6e7e8"/><path d="m382.171875 333.726562h-286.742187c-5.179688 0-9.375-4.121093-9.375-9.203124v6.902343c0 5.085938 4.195312 9.207031 9.375 9.207031h286.742187c5.179687 0 9.375-4.121093 9.375-9.207031v-6.902343c0 5.082031-4.195313 9.203124-9.375 9.203124zm0 0" fill="#d1d3d4"/><path d="m358.460938 136.96875h-239.320313c-7.625 0-13.808594 6.179688-13.808594 13.808594v148.429687c0 7.628907 6.183594 13.808594 13.808594 13.808594h239.320313c7.625 0 13.808593-6.179687 13.808593-13.808594v-148.429687c0-7.628906-6.183593-13.808594-13.808593-13.808594zm0 0" fill="#fff"/><path d="m356.5625 145.597656h-235.527344c-3.8125 0-6.902344 3.09375-6.902344 6.90625v126.425782c0 3.808593 3.089844 6.902343 6.902344 6.902343h235.527344c3.8125 0 6.90625-3.09375 6.90625-6.902343v-126.425782c0-3.8125-3.09375-6.90625-6.90625-6.90625zm0 0" fill="#ee5a9c"/><path d="m356.5625 145.597656h-235.527344c-3.8125 0-6.902344 3.089844-6.902344 6.90625v9.535156h.046876c.242187-3.59375 3.203124-6.441406 6.855468-6.441406h235.527344c3.652344 0 6.613281 2.847656 6.855469 6.441406h.046875v-9.535156c.003906-3.8125-3.089844-6.90625-6.902344-6.90625zm0 0" fill="#e43d91"/><path d="m248.546875 305.929688h-30.667969c-3.394531 0-6.144531-2.75-6.144531-6.144532v-1.519531c0-3.394531 2.75-6.144531 6.144531-6.144531h30.667969c3.390625 0 6.144531 2.75 6.144531 6.144531v1.519531c0 3.394532-2.753906 6.144532-6.144531 6.144532zm0 0" fill="#e6e7e8"/><path d="m183.886719 313.015625c.09375 5.882813 4.160156 10.621094 9.179687 10.621094h80.289063c5.019531 0 9.085937-4.738281 9.183593-10.621094zm0 0" fill="#d1d3d4"/><path d="m233.613281 270.269531-.179687-1.304687-.542969-3.894532-1.117187-8.042968-.949219-6.820313c-.722657-5.21875-3.742188-9.773437-8.132813-12.523437-.742187-.464844-1.515625-.894532-2.332031-1.246094l-20.992187-7.089844-3.792969-4.472656-3.9375 3.191406 3.9375-3.191406v-5.84375c2.730469-3.578125 4.234375-8.234375 5.042969-12.925781 2.339843-.097657 4.515624-3.046875 4.96875-6.933594.34375-2.9375-.394532-5.574219-1.742188-6.972656.03125-.257813.058594-.515625.085938-.777344.035156-.351563.0625-.699219.089843-1.050781.023438-.296875.046875-.585938.066407-.882813.019531-.355469.027343-.707031.035156-1.058593.007812-.292969.019531-.578126.019531-.867188 0-.363281-.015625-.71875-.027344-1.078125-.007812-.273437-.011719-.550781-.027343-.820313-.027344-.367187-.066407-.726562-.105469-1.089843-.027344-.25-.042969-.503907-.078125-.75-.054688-.394531-.132813-.769531-.210938-1.148438-.039062-.199219-.066406-.402343-.113281-.597656-.132813-.5625-.292969-1.109375-.480469-1.625-.144531-.402344-.3125-.777344-.496094-1.125-.734374-1.386719-1.75-2.351563-2.839843-3.023437-.273438-.167969-.550781-.316407-.832031-.449219-.558594-.261719-1.125-.464844-1.671876-.613281-.550781-.148438-1.078124-.25-1.566406-.3125-.125-.015626-.242187-.027344-.363281-.039063l.003906-.003906c-.050781-.003907-.089843-.003907-.132812-.011719-.230469-.019531-.445313-.035156-.648438-.042969-.039062-.003906-.085937-.007812-.125-.007812-.011719 0-.027343 0-.035156 0-.1875-.007813-.359375-.007813-.507813-.007813-.027343 0-.046874.003906-.074218.003906-.050782 0-.085938 0-.132813.003907-.058593 0-.128906 0-.179687.003906-.054688.003906-.085938.007813-.128906.011719-.042969 0-.058594.003906-.085938.003906-.070312.007812-.117188.011719-.117188.011719l-.007812.023437c-.007812-.03125-.019531-.066406-.027344-.097656.007813.015625.015625.03125.023438.042969-.011719-.042969-.035156-.089844-.046875-.136719-.027344-.078125-.054688-.160156-.082031-.238281-.039063-.113281-.078126-.226563-.125-.335938-.054688-.140625-.121094-.277343-.1875-.414062-.015626-.035157-.03125-.074219-.050782-.109375-.023437-.046875-.039062-.097656-.0625-.144532-.03125-.058593-.070312-.113281-.105468-.167968-.078126-.140625-.167969-.273438-.257813-.410156-.078125-.125-.160156-.242188-.25-.363282-.035156-.050781-.070313-.101562-.109375-.148437-.078125-.097657-.167969-.195313-.253906-.292969-.113282-.125-.230469-.25-.351563-.375-.078125-.082031-.152343-.160156-.238281-.238281-.0625-.0625-.136719-.117188-.203125-.175781-.125-.113282-.257813-.21875-.394531-.328126-.15625-.121093-.316406-.238281-.484375-.355468-.074219-.054688-.140625-.109375-.222657-.160156-.015624-.011719-.027343-.023438-.039062-.035157 0 .003907.003906.007813.003906.011719-.046875-.03125-.101562-.054688-.148437-.085938-.300781-.191406-.621094-.375-.964844-.554687-.144531-.078125-.289063-.15625-.445313-.230469-.503906-.246094-1.039062-.480468-1.632812-.695312-5.21875-1.910156-16.503906-2.324219-22.125 8.921875-.328125.660156-.621094 1.335937-.890625 2.023437-.085937.226563-.160156.453125-.242187.683594-.164063.464844-.328126.933594-.46875 1.40625-.078126.269531-.148438.542969-.222657.816406-.117187.441406-.226562.882813-.324219 1.328125-.0625.28125-.121093.5625-.171874.847657-.085938.445312-.160157.890624-.226563 1.335937-.042969.273437-.085937.542969-.117187.820313-.0625.472656-.105469.941406-.148438 1.414062-.019531.238281-.046875.472656-.058594.710938-.042968.609374-.066406 1.210937-.082031 1.804687 0 .089844-.011719.183594-.011719.273437v.007813c-2.355468.503906-3.867187 3.957031-3.402344 7.941406.46875 3.992188 2.746094 7.003907 5.160157 6.941407.808593 4.6875 2.3125 9.339843 5.039062 12.914062v1.738281l.003907 4.105469 3.9375 3.191406-3.9375-3.191406-3.789063 4.472656-.183594.058594-3.097656 1.050781-17.707031 5.980469c-.613282.261719-1.191406.574219-1.757813.902344-4.707031 2.695312-7.957031 7.425781-8.710937 12.871094l-2.058594 14.8125-.726562 5.25c-.078126.554687-.078126 1.097656-.046876 1.636718.007813.15625.023438.308594.042969.460938.015625.136718.011719.277344.035157.414062l.019531-.132812c.085937.570312.222656 1.121094.417969 1.652344 1.167968 3.160156 4.175781 5.484374 7.820312 5.484374h86.859375c3.644531 0 6.652344-2.324218 7.820313-5.484374.199218-.53125.332031-1.082032.417968-1.652344l.019532.128906c.023437-.136719.019531-.277344.035156-.414062.019531-.152344.03125-.304688.042968-.460938.027344-.535156.027344-1.082031-.050781-1.636719zm0 0" fill="#e43d91"/><path d="m225.324219 273.789062h-86.859375c-5.082032 0-8.984375-4.484374-8.285156-9.519531l2.78125-20.0625c.847656-6.101562 4.816406-11.320312 10.46875-13.769531l9.640624-3.253906 3.722657-1.257813c.003906-.003906.003906-.003906.003906-.003906l7.4375-2.515625 3.976563-1.339844h27.363281l9.316406 3.148438.914063.308594 14.554687 4.914062c5.652344 2.449219 9.617187 7.667969 10.464844 13.769531l.949219 6.820313 1.117187 8.042968.722656 5.199219c.695313 5.03125-3.207031 9.519531-8.289062 9.519531zm0 0" fill="#e6e7e8"/><path d="m132.964844 246.945312c.847656-6.101562 4.8125-11.324218 10.464844-13.773437l24.78125-8.371094h27.363281l24.78125 8.371094c5.652343 2.449219 9.621093 7.671875 10.464843 13.773437l2.757813 19.835938c.132813-.808594.148437-1.652344.03125-2.511719l-2.785156-20.0625c-.847657-6.101562-4.8125-11.320312-10.464844-13.769531l-24.78125-8.371094h-27.367187l-24.777344 8.371094c-5.652344 2.449219-9.621094 7.667969-10.46875 13.769531l-2.785156 20.0625c-.121094.859375-.101563 1.703125.03125 2.511719zm0 0" fill="#fff"/><path d="m233.34375 262.34375c-1.023438 3.414062-4.1875 5.96875-8.019531 5.96875h-86.859375c-3.832032 0-6.996094-2.554688-8.019532-5.96875l-.265624 1.925781c-.699219 5.03125 3.207031 9.519531 8.285156 9.519531h86.859375c5.078125 0 8.988281-4.488281 8.289062-9.519531zm0 0" fill="#d1d3d4"/><path d="m199.707031 223.75-4.128906-4.875-13.683594 11.089844-13.683593-11.089844-4.125 4.878906c-.855469 1.851563-.832032 3.984375.046874 5.820313l12.871094 26.746093 4.890625 10.171876 17.761719-36.917969c.882812-1.839844.902344-3.972657.050781-5.824219zm0 0" fill="#e6e7e8"/><path d="m188.875 273.789062-4.429688-37.078124h-5.101562l-4.429688 37.078124zm0 0" fill="#1caee4"/><path d="m175.570312 268.3125-.65625 5.476562h13.960938l-.652344-5.476562zm0 0" fill="#009add"/><path d="m168.210938 205.878906v12.996094l13.683593 11.085938 13.683594-11.085938v-12.996094zm0 0" fill="#f6ca14"/><path d="m181.894531 229.960938-10.917969 13.832031-6.832031-14.214844c-.886719-1.839844-.910156-3.980469-.054687-5.835937l4.121094-4.867188zm0 0" fill="#d0d2d3"/><path d="m181.894531 229.960938 10.917969 13.832031 6.832031-14.214844c.890625-1.839844.914063-3.980469.058594-5.835937l-4.125-4.867188zm0 0" fill="#d0d2d3"/><path d="m186.464844 236.761719-2.632813 2.632812c-1.070312 1.070313-2.804687 1.070313-3.875 0l-2.636719-2.632812c-1.066406-1.070313-1.066406-2.804688 0-3.875l.667969-.667969c2.15625-2.15625 5.652344-2.15625 7.808594 0l.667969.667969c1.070312 1.070312 1.070312 2.804687 0 3.875zm0 0" fill="#23c1e6"/><path d="m186.160156 232.578125-2.894531 2.894531c-.757813.757813-1.984375.757813-2.742187 0l-2.894532-2.894531-.871094.875c-.761718.757813-.761718 1.984375 0 2.742187l3.765626 3.769532c.757812.757812 1.984374.757812 2.742187 0l3.769531-3.769532c.757813-.757812.757813-1.984374 0-2.742187zm0 0" fill="#1cade3"/><path d="m201.507812 188.636719c0 11.589843-2.097656 30.835937-19.613281 30.835937-17.511719 0-19.609375-19.246094-19.609375-30.835937 0-11.585938 1.824219-20.980469 19.609375-20.980469 17.789063 0 19.613281 9.394531 19.613281 20.980469zm0 0" fill="#fff235"/><path d="m181.894531 213.996094c-16.1875 0-19.207031-16.441406-19.570312-28.082032-.027344.890626-.039063 1.800782-.039063 2.722657 0 11.589843 2.097656 30.835937 19.609375 30.835937 17.515625 0 19.613281-19.246094 19.613281-30.835937 0-.921875-.011718-1.832031-.042968-2.722657-.363282 11.640626-3.378906 28.082032-19.570313 28.082032zm0 0" fill="#fddd3a"/><path d="m167.085938 192.109375c.484374 4.132813-1.152344 7.722656-3.660157 8.015625-2.503906.296875-4.929687-2.820312-5.414062-6.953125s1.152343-7.722656 3.660156-8.015625 4.929687 2.820312 5.414063 6.953125zm0 0" fill="#fff235"/><path d="m196.515625 192.109375c-.484375 4.132813 1.15625 7.722656 3.660156 8.015625 2.507813.296875 4.929688-2.820312 5.414063-6.953125s-1.152344-7.722656-3.660156-8.015625c-2.503907-.292969-4.929688 2.820312-5.414063 6.953125zm0 0" fill="#fff235"/><path d="m163.246094 193.261719c-.253906-2.140625-.203125-4.148438.082031-5.777344-.109375-.003906-.214844 0-.324219.011719-1.988281.234375-3.320312 2.816406-2.972656 5.765625.34375 2.949219 2.238281 5.152343 4.226562 4.921875.039063-.003906.082032-.019532.121094-.027344-.519531-1.394531-.921875-3.070312-1.132812-4.894531zm0 0" fill="#fddd3a"/><path d="m200.546875 193.261719c.25-2.140625.199219-4.148438-.082031-5.777344.105468-.003906.214844 0 .324218.011719 1.988282.234375 3.320313 2.816406 2.972657 5.765625-.136719 1.179687-.53125 2.359375-1.234375 3.324219-.296875.40625-.648438.777343-1.0625 1.0625-.304688.210937-.902344.589843-1.28125.515624.035156-.25-.003906-.511718-.113282-.738281-.027343-.0625-.058593-.121093-.089843-.183593-.242188-.5625.101562-1.292969.21875-1.855469.148437-.699219.261719-1.410157.347656-2.125zm0 0" fill="#fddd3a"/><path d="m191.824219 176.390625s-4.214844 6.527344-11.542969 7.128906c-7.328125.601563-12.492188 1.050781-14.535156 4.664063-2.039063 3.613281.054687 10.421875-1.570313 10.421875-1.628906 0-5.417969-15.601563.203125-26.84375 5.625-11.242188 16.90625-10.828125 22.125-8.921875s6.925782 4.917968 6.925782 8.03125c0 3.109375-1.605469 5.519531-1.605469 5.519531zm0 0" fill="#1cade3"/><path d="m189.691406 164.398438c.707032 1.179687 1 2.453124 1 3.738281 0 3.109375-1.605468 5.519531-1.605468 5.519531s-4.214844 6.523438-11.542969 7.128906c-7.328125.601563-12.492188 1.050782-14.53125 4.660156-1.261719 2.230469-.945313 5.679688-.902344 7.992188.605469 3.128906 1.476563 5.167969 2.0625 5.167969 1.625 0-.464844-6.808594 1.574219-10.421875 2.039062-3.613282 7.203125-4.058594 14.53125-4.660156 7.328125-.601563 11.542968-7.128907 11.542968-7.128907s1.609376-2.410156 1.609376-5.519531c0-2.363281-.984376-4.667969-3.738282-6.476562zm0 0" fill="#0099dc"/><path d="m193.164062 168.855469s7.601563-.832031 9.9375 5.59375c3.082032 8.488281-1.496093 23.742187-2.871093 23.742187s.457031-7.480468-1.617188-14.171875c-2.070312-6.691406-7.085937-7.210937-7.085937-7.210937zm0 0" fill="#1cade3"/><path d="m201.351562 181.285156c-2.070312-6.691406-7.085937-7.210937-7.085937-7.210937l1.070313-5.1875c-1.273438-.128907-2.167969-.03125-2.167969-.03125l-1.636719 7.953125s5.011719.519531 7.085938 7.210937c2.070312 6.691407.242187 14.171875 1.613281 14.171875.484375 0 1.367187-1.894531 2.171875-4.714844-.042969-2.667968.367187-7.613281-1.050782-12.191406zm0 0" fill="#0099dc"/><path d="m164.929688 173.128906c5.621093-11.242187 16.902343-10.828125 22.121093-8.921875 3.257813 1.191407 5.148438 2.8125 6.105469 4.617188-.65625-2.347657-2.589844-4.5-6.652344-5.984375-5.21875-1.90625-16.5-2.320313-22.125 8.921875-4.839844 9.679687-2.699218 22.59375-.976562 25.992187-1.546875-4.703125-2.808594-15.957031 1.527344-24.625zm0 0" fill="#23c1e6"/><path d="m203.101562 174.453125c-2.335937-6.429687-9.9375-5.597656-9.9375-5.597656l-.273437 1.339843c1.78125-.050781 7.429687.238282 9.386719 5.625 2.503906 6.890626-.042969 18.234376-1.824219 22.269532 1.582031-1.375 5.578125-15.570313 2.648437-23.636719zm0 0" fill="#23c1e6"/><path d="m181.894531 229.960938-11.863281 11.863281-5.886719-12.246094c-.886719-1.839844-.910156-3.980469-.054687-5.835937l4.121094-4.867188zm0 0" fill="#fff"/><path d="m181.894531 229.960938 11.867188 11.867187 5.882812-12.25c.890625-1.839844.914063-3.980469.058594-5.835937l-4.125-4.867188zm0 0" fill="#fff"/><path d="m332.285156 216.375c-1.195312-11.765625-7.636718-21.984375-16.949218-28.277344-6.207032-4.195312-13.691407-6.644531-21.746094-6.644531-8.058594 0-15.542969 2.449219-21.75 6.644531-9.3125 6.292969-15.753906 16.507813-16.949219 28.277344-.128906 1.308594-.199219 2.636719-.199219 3.980469v7.140625c0 21.484375 17.417969 38.898437 38.898438 38.898437 21.480468 0 38.898437-17.414062 38.898437-38.898437v-7.140625c-.003906-1.34375-.074219-2.671875-.203125-3.980469zm0 0" fill="#e43d91"/><path d="m254.691406 221.496094c0 21.480468 17.414063 38.898437 38.898438 38.898437 21.480468 0 38.894531-17.414062 38.894531-38.898437v-7.144532c0-21.480468-17.414063-38.898437-38.894531-38.898437-21.484375 0-38.898438 17.417969-38.898438 38.898437zm0 0" fill="#d1d3d4"/><path d="m332.484375 214.351562c0 21.484376-17.414063 38.898438-38.898437 38.898438-21.484376 0-38.898438-17.414062-38.898438-38.898438 0-21.480468 17.414062-38.898437 38.898438-38.898437 21.484374 0 38.898437 17.417969 38.898437 38.898437zm0 0" fill="#fff"/><path d="m282.570312 232.332031v-25.394531c0-3.660156 4.144532-5.78125 7.113282-3.640625l17.613281 12.699219c2.484375 1.792968 2.484375 5.488281 0 7.28125l-17.613281 12.699218c-2.96875 2.136719-7.113282.011719-7.113282-3.644531zm0 0" fill="#d1d3d4"/><path d="m282.570312 226.324219v-25.390625c0-3.660156 4.144532-5.78125 7.113282-3.640625l17.613281 12.695312c2.484375 1.792969 2.484375 5.492188 0 7.285157l-17.613281 12.695312c-2.96875 2.140625-7.113282.015625-7.113282-3.644531zm0 0" fill="#1caee4"/><path d="m307.296875 213.796875-17.613281 12.699219c-2.96875 2.140625-7.113282.019531-7.113282-3.640625v3.472656c0 3.660156 4.144532 5.78125 7.113282 3.640625l17.613281-12.699219c1.78125-1.285156 2.261719-3.539062 1.492187-5.375-.304687.726563-.785156 1.394531-1.492187 1.902344zm0 0" fill="#009add"/></svg>